<?xml version="1.0" encoding="UTF-8"?>
<svg version="1.1" xmlns="http://www.w3.org/2000/svg" width="1600" height="1598">
<path d="M0 0 C317.46 0 634.92 0 962 0 C984.23468372 394.28978287 984.23468372 394.28978287 980.27768683 482.64870501 C980.20399206 484.33029213 980.13037163 486.01188251 980.0568175 487.69347578 C980.01971062 488.53635368 979.98260374 489.37923158 979.94437241 490.24765123 C979.82999603 492.88282793 979.72032997 495.51816337 979.61199334 498.15359491 C975.72385446 592.39284343 968.73511415 680.2645515 853.72549438 822.66659546 C847.47681343 828.38586714 841.12371577 833.98343616 834.75 839.5625 C833.1587099 840.96417915 831.56751819 842.36597001 829.97642469 843.76787233 C758.93964688 906.15583849 678.80049482 957.08010509 580.89154226 951.58138043 C566.60774772 950.62254959 552.52084706 948.5865051 538.40112305 946.27856445 C536.29721848 945.93726642 534.19328943 945.59611922 532.08933544 945.255126 C531.05841087 945.08769589 530.02748631 944.92026578 528.9653216 944.74776202 C524.8735213 944.08553085 520.78047278 943.43148172 516.68637967 942.78358006 C514.6875817 942.46563348 512.68954605 942.14285496 510.69232821 941.81512904 C485.30438629 937.69354125 466.37027962 937.61714785 444.74646759 952.81146049 C428.17961045 964.9741193 413.95820739 979.74894993 400.5625 995.25 C399.98263556 995.91937749 399.40277113 996.58875498 398.80533504 997.27841663 C385.33354983 1012.8864166 372.92038711 1029.10279336 361.38868713 1046.19146729 C358.85887851 1049.89363744 356.30954324 1052.98532182 353 1056 C351.40935497 1057.85635097 349.86842381 1059.74329613 348.33203125 1061.64453125 C347.89246094 1062.09183594 347.45289063 1062.53914063 347 1063 C346.34 1063 345.68 1063 345 1063 C344.5978125 1063.9590625 344.5978125 1063.9590625 344.1875 1064.9375 C343 1067 343 1067 340 1068 C339.28479046 1069.30793636 338.62484627 1070.64656387 338 1072 C335.06258605 1076.26624407 332.14161152 1079.48687825 326.98532104 1080.7223053 C323.28883701 1080.98477902 319.6699034 1080.98965087 315.96484375 1080.90820312 C314.55481597 1080.90594336 313.1447788 1080.9072194 311.73475647 1080.91174316 C307.92666465 1080.91402876 304.12060884 1080.86716241 300.31298828 1080.8111515 C296.32660383 1080.76097281 292.34016717 1080.75642858 288.35351562 1080.74694824 C280.81327478 1080.72213195 273.27396732 1080.65655064 265.73413658 1080.57615232 C255.53933556 1080.46981501 245.34427735 1080.42679077 235.1490612 1080.38013458 C219.09867566 1080.30502144 203.05025933 1080.14561727 187 1080 C187 1033.8 187 987.6 187 940 C102.19 939.67 17.38 939.34 -70 939 C-70.52340032 852.72318605 -70.52340032 852.72318605 -70.66690063 825.98873901 C-70.67203131 825.03530043 -70.67716199 824.08186184 -70.68244814 823.09953118 C-70.85507437 790.93243883 -70.99143354 758.76529784 -71.10092163 726.59793091 C-71.10451111 725.54606253 -71.1081006 724.49419416 -71.11179885 723.41045099 C-71.18965759 700.53742586 -71.26167612 677.66438581 -71.32769857 654.79132354 C-71.36012257 643.57051448 -71.39383391 632.34970945 -71.42822266 621.12890625 C-71.43162239 620.01244284 -71.43502213 618.89597942 -71.43852489 617.74568378 C-71.54885039 581.71253052 -71.7437855 545.680454 -71.98372774 509.6479501 C-72.23033654 472.54595946 -72.38933325 435.44456193 -72.44178974 398.34176571 C-72.44927916 393.0726617 -72.45774564 387.80355969 -72.46680832 382.53445816 C-72.46856132 381.49766546 -72.47031432 380.46087276 -72.47212043 379.3926621 C-72.50256253 362.86202405 -72.62236654 346.33324817 -72.77763288 329.80336257 C-72.93265721 313.08828619 -72.98869215 296.37501026 -72.95103581 279.65924363 C-72.9332859 270.64020878 -72.9542394 261.62608657 -73.09934235 252.60806847 C-73.83788291 204.88539777 -66.19030773 166.88850406 -47.05212474 123.09000039 C-43.23277182 114.32198453 -39.89525051 105.39615995 -36.64281364 96.40568326 C-35.25056488 92.58149166 -33.80916114 88.77589184 -32.37109375 84.96875 C-29.98119181 78.61722911 -27.5999944 72.26248324 -25.22265625 65.90625 C-19.07035546 49.46116918 -12.89167843 33.0268893 -6.625 16.625 C-6.3435614 15.88759583 -6.0621228 15.15019165 -5.77215576 14.39044189 C-4.98738044 12.33533219 -4.20106418 10.2808205 -3.4140625 8.2265625 C-2.9701416 7.06721191 -2.5262207 5.90786133 -2.06884766 4.71337891 C-1 2 -1 2 0 0 Z M95 95 C95 319.07 95 543.14 95 774 C164.63 774 234.26 774 306 774 C306 819.87 306 865.74 306 913 C312.39451461 907.55511329 312.39451461 907.55511329 317.11016846 901.27397156 C317.86220347 900.14467449 318.61510993 899.01595741 319.36875248 897.88773251 C319.76188039 897.29273602 320.1550083 896.69773954 320.56004918 896.08471286 C333.50713445 876.61590662 348.01368523 858.40294836 363.25 840.6875 C363.92825128 839.89644568 364.60650256 839.10539136 365.30530691 838.2903657 C391.99170523 807.32237587 423.67793899 775.13550151 466.43896294 771.67280293 C478.84975507 770.95248904 491.22685855 771.17107932 503.63841623 771.683907 C505.68244118 771.76589213 507.72659136 771.83825189 509.77108049 771.90763116 C536.16010297 772.81300912 562.52123136 774.39408031 588.51843262 779.18148804 C645.64627822 789.65851043 690.56001882 786.34505397 739.60682625 753.02733064 C799.66746224 711.36341651 861.77936371 651.31262386 876.05291341 577.08118619 C881.63899227 545.76338925 882.77584366 513.95312002 882.91796875 482.20703125 C882.92836235 480.26593273 882.92836235 480.26593273 882.93896592 478.28562009 C883.11201598 433.03181664 879.82122685 387.98994526 877.1875 342.8125 C873.825625 261.034375 870.46375 179.25625 867 95 C612.24 95 357.48 95 95 95 Z " fill="#6C2498" transform="translate(354,259)"/>
<path d="M0 0 C31.35 0 62.7 0 95 0 C95 93.39 95 186.78 95 283 C63.65 283 32.3 283 0 283 C0 189.61 0 96.22 0 0 Z " fill="#6C2498" transform="translate(963,540)"/>
<path d="M0 0 C31.35 0 62.7 0 95 0 C95 93.39 95 186.78 95 283 C63.65 283 32.3 283 0 283 C0 189.61 0 96.22 0 0 Z " fill="#6C2498" transform="translate(706,540)"/>
</svg>
